<svg width="126" height="105" viewBox="0 0 126 105" fill="none" xmlns="http://www.w3.org/2000/svg">
<path d="M17.5 52C14 39.5001 2.23757 43.9632 0 45V85.0001C0 96.0458 8.9543 105 20 105H49.5C51.5 96.5 46.0939 90.7807 42.0663 89.892C51.9116 89.0033 56 77.5 53.2541 70.3405C51.115 64.763 70.5 48.0001 78.5 41.5C66.5 48.0001 48 56.8182 44 53C33.0423 42.5404 22.208 49.1345 17.5537 51.9673L17.5 52Z" fill="#FAF6DF"/>
<path d="M85.174 42.3104L82.121 38.5203L79.3847 34.4956C79.3847 34.4956 76.9243 33.8239 74.3565 35.767L78.3856 41.2057L78.4638 41.3114L82.4929 46.7501C85.0998 44.8597 85.174 42.3104 85.174 42.3104Z" fill="url(#paint0_linear)"/>
<path d="M98.7191 35.4247C98.7191 35.4247 96.1708 37.3942 96.9151 40.4413C97.6858 43.4687 98.4546 47.9287 92.1838 52.6561L85.4165 43.5211L98.7191 35.4247Z" fill="url(#paint1_linear)"/>
<path d="M89.8199 23.4119C89.8199 23.4119 87.1935 25.2759 84.4954 23.6762C81.8238 22.057 77.7812 20.0222 71.4321 24.6439L78.1994 33.7789L89.8199 23.4119Z" fill="url(#paint2_linear)"/>
<path d="M86.2283 45.1687C86.2283 45.1687 112.868 28.7461 115.084 14.0192C100.331 11.8226 76.8597 32.5223 76.8597 32.5223L86.2283 45.1687Z" fill="#F9FBFC"/>
<path d="M98.8399 26.0938C100.277 28.0331 103.013 28.4405 104.953 27.0039C106.892 25.5672 107.299 22.8305 105.863 20.8912C104.426 18.9519 101.689 18.5444 99.7501 19.9811C97.8108 21.4177 97.4033 24.1545 98.8399 26.0938Z" fill="url(#paint3_linear)"/>
<path d="M92.6093 30.7096C93.3547 31.7157 94.7745 31.9271 95.7806 31.1818C96.7867 30.4365 96.9981 29.0167 96.2527 28.0106C95.5074 27.0045 94.0876 26.7931 93.0815 27.5384C92.0754 28.2837 91.864 29.7035 92.6093 30.7096Z" fill="url(#paint4_linear)"/>
<path fill-rule="evenodd" clip-rule="evenodd" d="M72.475 97.6305C72.7895 97.6305 73.0443 97.3756 73.0443 97.0612L73.0443 94.9264L75.1791 94.9264C75.4935 94.9264 75.7484 94.6715 75.7484 94.3571C75.7484 94.0426 75.4935 93.7878 75.1791 93.7878L73.0443 93.7878L73.0443 91.6529C73.0443 91.3385 72.7895 91.0836 72.475 91.0836C72.1606 91.0836 71.9057 91.3385 71.9057 91.6529L71.9057 93.7878L69.7708 93.7878C69.4564 93.7878 69.2015 94.0426 69.2015 94.3571C69.2015 94.6715 69.4564 94.9264 69.7708 94.9264L71.9057 94.9264L71.9057 97.0612C71.9057 97.3756 72.1606 97.6305 72.475 97.6305Z" fill="#9197CC"/>
<path fill-rule="evenodd" clip-rule="evenodd" d="M39.8713 28.9908C40.1857 28.9908 40.4406 28.736 40.4406 28.4215L40.4406 26.2867L42.5754 26.2867C42.8898 26.2867 43.1447 26.0318 43.1447 25.7174C43.1447 25.403 42.8898 25.1481 42.5754 25.1481L40.4406 25.1481L40.4406 23.0132C40.4406 22.6988 40.1857 22.4439 39.8713 22.4439C39.5569 22.4439 39.302 22.6988 39.302 23.0132L39.302 25.1481L37.167 25.1481C36.8526 25.1481 36.5977 25.403 36.5977 25.7174C36.5977 26.0318 36.8526 26.2867 37.167 26.2867L39.302 26.2867L39.302 28.4215C39.302 28.736 39.5569 28.9908 39.8713 28.9908Z" fill="#9197CC"/>
<path fill-rule="evenodd" clip-rule="evenodd" d="M13.2735 20.4109C13.5879 20.4109 13.8428 20.156 13.8428 19.8416L13.8428 17.7068L15.9776 17.7068C16.292 17.7068 16.5469 17.4519 16.5469 17.1375C16.5469 16.823 16.292 16.5682 15.9776 16.5682L13.8428 16.5682L13.8428 14.4333C13.8428 14.1188 13.5879 13.864 13.2735 13.864C12.9591 13.864 12.7042 14.1188 12.7042 14.4333L12.7042 16.5682L10.5692 16.5682C10.2548 16.5682 9.99995 16.823 9.99995 17.1375C9.99995 17.4519 10.2548 17.7067 10.5692 17.7067L12.7042 17.7068L12.7042 19.8416C12.7042 20.156 12.9591 20.4109 13.2735 20.4109Z" fill="#9197CC"/>
<path fill-rule="evenodd" clip-rule="evenodd" d="M31.8788 20.7279C32.0848 20.7279 32.2518 20.5609 32.2518 20.3549L32.2518 18.956L33.6506 18.956C33.8567 18.956 34.0237 18.789 34.0237 18.583C34.0237 18.3769 33.8567 18.2099 33.6506 18.2099L32.2518 18.2099L32.2518 16.811C32.2518 16.6049 32.0848 16.4379 31.8788 16.4379C31.6728 16.4379 31.5058 16.6049 31.5058 16.811L31.5058 18.2099L30.1068 18.2099C29.9007 18.2099 29.7337 18.3769 29.7337 18.583C29.7337 18.789 29.9007 18.956 30.1067 18.956L31.5058 18.956L31.5058 20.3549C31.5058 20.5609 31.6728 20.7279 31.8788 20.7279Z" fill="#9197CC"/>
<path fill-rule="evenodd" clip-rule="evenodd" d="M61.9087 11.29C62.1147 11.29 62.2818 11.123 62.2818 10.917L62.2818 9.51814L63.6805 9.51814C63.8866 9.51814 64.0536 9.35113 64.0536 9.1451C64.0536 8.93908 63.8866 8.77206 63.6805 8.77206L62.2818 8.77206L62.2818 7.37311C62.2818 7.16708 62.1147 7.00007 61.9087 7.00007C61.7027 7.00007 61.5357 7.16708 61.5357 7.37311L61.5357 8.77206L60.1367 8.77206C59.9306 8.77206 59.7636 8.93908 59.7636 9.1451C59.7636 9.35113 59.9306 9.51814 60.1367 9.51814L61.5357 9.51814L61.5357 10.917C61.5357 11.123 61.7027 11.29 61.9087 11.29Z" fill="#9197CC"/>
<path fill-rule="evenodd" clip-rule="evenodd" d="M71.3467 79.0715C71.5527 79.0715 71.7197 78.9045 71.7197 78.6985L71.7197 77.2996L73.1185 77.2996C73.3246 77.2996 73.4916 77.1326 73.4916 76.9266C73.4916 76.7206 73.3246 76.5536 73.1185 76.5536L71.7197 76.5536L71.7197 75.1546C71.7197 74.9486 71.5527 74.7816 71.3467 74.7816C71.1407 74.7816 70.9737 74.9486 70.9737 75.1546L70.9737 76.5536L69.5746 76.5536C69.3686 76.5536 69.2016 76.7206 69.2016 76.9266C69.2016 77.1326 69.3686 77.2996 69.5746 77.2996L70.9737 77.2996L70.9737 78.6985C70.9737 78.9045 71.1407 79.0715 71.3467 79.0715Z" fill="#9197CC"/>
<path fill-rule="evenodd" clip-rule="evenodd" d="M97.357 80.4705C97.6714 80.4705 97.9263 80.2156 97.9263 79.9012L97.9263 77.7663L100.061 77.7663C100.375 77.7663 100.63 77.5114 100.63 77.197C100.63 76.8826 100.375 76.6277 100.061 76.6277L97.9263 76.6277L97.9263 74.4928C97.9263 74.1784 97.6714 73.9235 97.357 73.9235C97.0426 73.9235 96.7877 74.1784 96.7877 74.4928L96.7877 76.6277L94.6527 76.6277C94.3383 76.6277 94.0834 76.8826 94.0834 77.197C94.0834 77.5114 94.3383 77.7663 94.6527 77.7663L96.7877 77.7663L96.7877 79.9012C96.7877 80.2156 97.0426 80.4705 97.357 80.4705Z" fill="#9197CC"/>
<path fill-rule="evenodd" clip-rule="evenodd" d="M104.896 86.9679C105.275 86.9679 105.582 86.6605 105.582 86.2813L105.582 83.7063L108.157 83.7063C108.536 83.7063 108.844 83.3989 108.844 83.0197C108.844 82.6405 108.536 82.3331 108.157 82.3331L105.582 82.3331L105.582 79.7583C105.582 79.379 105.275 79.0716 104.896 79.0716C104.516 79.0716 104.209 79.379 104.209 79.7583L104.209 82.3331L101.634 82.3331C101.255 82.3331 100.947 82.6405 100.947 83.0197C100.947 83.3989 101.255 83.7063 101.634 83.7063L104.209 83.7063L104.209 86.2813C104.209 86.6605 104.516 86.9679 104.896 86.9679Z" fill="#9197CC"/>
<path fill-rule="evenodd" clip-rule="evenodd" d="M108.24 73.9236C108.694 73.9236 109.061 73.5561 109.061 73.1029L109.061 70.0253L112.139 70.0253C112.592 70.0253 112.959 69.6579 112.959 69.2046C112.959 68.7514 112.592 68.3839 112.139 68.3839L109.061 68.3839L109.061 65.3063C109.061 64.853 108.694 64.4856 108.24 64.4856C107.787 64.4856 107.42 64.853 107.42 65.3063L107.42 68.3839L104.342 68.3839C103.889 68.3839 103.521 68.7514 103.521 69.2046C103.521 69.6579 103.889 70.0253 104.342 70.0253L107.42 70.0253L107.42 73.1029C107.42 73.5561 107.787 73.9236 108.24 73.9236Z" fill="#9197CC"/>
<path fill-rule="evenodd" clip-rule="evenodd" d="M63.6246 94.5156C64.0779 94.5156 64.4453 94.1482 64.4453 93.6949L64.4453 90.6174L67.5229 90.6174C67.9762 90.6174 68.3436 90.2499 68.3436 89.7967C68.3436 89.3434 67.9762 88.976 67.5229 88.976L64.4453 88.976L64.4453 85.8983C64.4453 85.4451 64.0779 85.0776 63.6246 85.0776C63.1714 85.0776 62.8039 85.4451 62.8039 85.8983L62.8039 88.976L59.7263 88.976C59.2731 88.976 58.9056 89.3434 58.9056 89.7967C58.9056 90.2499 59.2731 90.6174 59.7263 90.6174L62.8039 90.6174L62.8039 93.6949C62.8039 94.1482 63.1714 94.5156 63.6246 94.5156Z" fill="#9197CC"/>
<path fill-rule="evenodd" clip-rule="evenodd" d="M30.1627 39.6038C30.616 39.6038 30.9834 39.2363 30.9834 38.7831L30.9834 35.7055L34.061 35.7055C34.5143 35.7055 34.8817 35.3381 34.8817 34.8848C34.8817 34.4315 34.5143 34.0641 34.061 34.0641L30.9834 34.0641L30.9834 30.9865C30.9834 30.5332 30.616 30.1658 30.1627 30.1658C29.7095 30.1658 29.342 30.5332 29.342 30.9865L29.342 34.0641L26.2644 34.0641C25.8112 34.0641 25.4437 34.4315 25.4437 34.8848C25.4437 35.3381 25.8112 35.7055 26.2644 35.7055L29.342 35.7055L29.342 38.7831C29.342 39.2363 29.7095 39.6038 30.1627 39.6038Z" fill="#9197CC"/>
<defs>
<linearGradient id="paint0_linear" x1="82.5393" y1="34.3733" x2="76.9447" y2="44.6774" gradientUnits="userSpaceOnUse">
<stop stop-color="#BDF7A3"/>
<stop offset="1" stop-color="#009EE0"/>
</linearGradient>
<linearGradient id="paint1_linear" x1="101.235" y1="44.1658" x2="84.0024" y2="43.7915" gradientUnits="userSpaceOnUse">
<stop stop-color="#BDF7A3"/>
<stop offset="1" stop-color="#009EE0"/>
</linearGradient>
<linearGradient id="paint2_linear" x1="84.1857" y1="17.4809" x2="75.3788" y2="33.7014" gradientUnits="userSpaceOnUse">
<stop stop-color="#BDF7A3"/>
<stop offset="1" stop-color="#009EE0"/>
</linearGradient>
<linearGradient id="paint3_linear" x1="107.006" y1="13.4121" x2="99.7348" y2="29.1309" gradientUnits="userSpaceOnUse">
<stop stop-color="#BDF7A3"/>
<stop offset="1" stop-color="#009EE0"/>
</linearGradient>
<linearGradient id="paint4_linear" x1="98.9203" y1="21.6962" x2="86.4302" y2="43.0297" gradientUnits="userSpaceOnUse">
<stop stop-color="#BDF7A3"/>
<stop offset="1" stop-color="#009EE0"/>
</linearGradient>
</defs>
</svg>
